<svg width="24" height="24" viewBox="0 0 24 24" fill="none" xmlns="http://www.w3.org/2000/svg">
<path d="M2.83333 3.75H8.33333C9.30579 3.75 10.2384 4.13631 10.9261 4.82394C11.6137 5.51158 12 6.44421 12 7.41667V20.25C12 19.5207 11.7103 18.8212 11.1945 18.3055C10.6788 17.7897 9.97935 17.5 9.25 17.5H2.83333V3.75Z" stroke-linecap="round" stroke-linejoin="round"/>
<path d="M21.1667 3.75H15.6667C14.6942 3.75 13.7616 4.13631 13.0739 4.82394C12.3863 5.51158 12 6.44421 12 7.41667V20.25C12 19.5207 12.2897 18.8212 12.8055 18.3055C13.3212 17.7897 14.0207 17.5 14.75 17.5H21.1667V3.75Z" stroke-linecap="round" stroke-linejoin="round"/>
</svg>
