<svg width="100" height="100" viewBox="0 0 100 100" fill="none" xmlns="http://www.w3.org/2000/svg">
<rect width="100" height="100" rx="12" fill="#6848DB"/>
<path d="M61.207 55.8906C61.207 57.8411 60.8333 59.6732 60.0859 61.3867C59.3568 63.1003 58.3542 64.5951 57.0781 65.8711C55.8021 67.1471 54.3073 68.1589 52.5938 68.9062C50.8802 69.6354 49.0482 70 47.0977 70C45.931 70 44.8008 69.8724 43.707 69.6172C42.6315 69.3438 41.6107 68.9701 40.6445 68.4961C39.6784 68.0039 38.776 67.4115 37.9375 66.7188C37.1172 66.026 36.3789 65.2513 35.7227 64.3945C34.4284 66.1081 32.806 67.4753 30.8555 68.4961C28.9049 69.4987 26.763 70 24.4297 70C22.4792 70 20.6471 69.6354 18.9336 68.9062C17.2201 68.1589 15.7253 67.1471 14.4492 65.8711C13.1732 64.5951 12.1615 63.1003 11.4141 61.3867C10.6849 59.6732 10.3203 57.8411 10.3203 55.8906V30.7891H15.8984V55.8906C15.8984 57.0755 16.1172 58.1875 16.5547 59.2266C17.0104 60.2474 17.6211 61.1406 18.3867 61.9062C19.1706 62.6719 20.0729 63.2826 21.0938 63.7383C22.1328 64.1758 23.2448 64.3945 24.4297 64.3945C25.5781 64.3945 26.6536 64.1849 27.6562 63.7656C28.6771 63.3464 29.5612 62.7721 30.3086 62.043C31.0742 61.3138 31.6849 60.457 32.1406 59.4727C32.6146 58.4701 32.8789 57.4036 32.9336 56.2734V55.8906V30.7891H38.5938V55.8906C38.5938 57.0755 38.8125 58.1875 39.25 59.2266C39.7057 60.2474 40.3164 61.1406 41.082 61.9062C41.8477 62.6719 42.7409 63.2826 43.7617 63.7383C44.8008 64.1758 45.9128 64.3945 47.0977 64.3945C48.2643 64.3945 49.3672 64.1758 50.4062 63.7383C51.4453 63.2826 52.3477 62.6719 53.1133 61.9062C53.8971 61.1406 54.5078 60.2474 54.9453 59.2266C55.401 58.1875 55.6289 57.0755 55.6289 55.8906V30.7891H61.207V55.8906Z" fill="white"/>
<path d="M69.38 57.14C69.54 60.62 70.48 63.15 72.2 64.73C73.94 66.31 76 67.1 78.38 67.1C79.96 67.1 81.41 66.86 82.73 66.38C84.05 65.9 85.39 65.2 86.75 64.28L89.36 67.91C87.88 69.09 86.17 70.03 84.23 70.73C82.29 71.41 80.28 71.75 78.2 71.75C75.04 71.75 72.35 71.06 70.13 69.68C67.93 68.28 66.25 66.34 65.09 63.86C63.95 61.38 63.38 58.5 63.38 55.22C63.38 52.04 63.95 49.2 65.09 46.7C66.25 44.2 67.88 42.23 69.98 40.79C72.08 39.35 74.58 38.63 77.48 38.63C81.56 38.63 84.77 40.03 87.11 42.83C89.47 45.61 90.65 49.42 90.65 54.26C90.65 54.8 90.64 55.32 90.62 55.82C90.6 56.32 90.57 56.76 90.53 57.14H69.38ZM77.54 43.13C75.28 43.13 73.41 43.93 71.93 45.53C70.45 47.13 69.6 49.6 69.38 52.94H85.1C85.04 49.74 84.34 47.31 83 45.65C81.68 43.97 79.86 43.13 77.54 43.13Z" fill="white"/>
</svg>
