<svg width="24" height="24" viewBox="0 0 24 24" fill="none" xmlns="http://www.w3.org/2000/svg">
<path d="M5.8254 14.8796C7.47007 13.4699 9.72344 12.75 12 12.75C14.2766 12.75 16.5299 13.4699 18.1746 14.8796C18.4905 15.1504 18.926 15.696 19.3249 16.3863C19.7209 17.0715 20.0544 17.8539 20.1969 18.5786C20.3416 19.3146 20.2738 19.9028 19.9921 20.2957C19.7237 20.6701 19.163 21 18 21H17.9707H17.9415H17.9124H17.8834H17.8544H17.8254H17.7966H17.7678H17.7391H17.7104H17.6818H17.6533H17.6248H17.5964H17.5681H17.5399H17.5117H17.4835H17.4554H17.4274H17.3995H17.3716H17.3438H17.316H17.2883H17.2607H17.2331H17.2056H17.1782H17.1508H17.1235H17.0962H17.069H17.0418H17.0147H16.9877H16.9608H16.9338H16.907H16.8802H16.8535H16.8268H16.8002H16.7736H16.7471H16.7206H16.6942H16.6679H16.6416H16.6154H16.5892H16.5631H16.537H16.511H16.4851H16.4592H16.4333H16.4076H16.3818H16.3561H16.3305H16.3049H16.2794H16.2539H16.2285H16.2031H16.1778H16.1525H16.1273H16.1021H16.077H16.0519H16.0269H16.0019H15.977H15.9521H15.9273H15.9025H15.8778H15.8531H15.8285H15.8039H15.7793H15.7548H15.7304H15.706H15.6816H15.6573H15.633H15.6088H15.5846H15.5605H15.5364H15.5123H15.4883H15.4644H15.4404H15.4166H15.3927H15.3689H15.3452H15.3215H15.2978H15.2742H15.2506H15.227H15.2035H15.1801H15.1567H15.1333H15.1099H15.0866H15.0633H15.0401H15.0169H14.9938H14.9706H14.9476H14.9245H14.9015H14.8785H14.8556H14.8327H14.8098H14.787H14.7642H14.7415H14.7188H14.6961H14.6734H14.6508H14.6282H14.6056H14.5831H14.5606H14.5382H14.5158H14.4934H14.471H14.4487H14.4264H14.4041H14.3819H14.3597H14.3375H14.3154H14.2932H14.2712H14.2491H14.2271H14.2051H14.1831H14.1612H14.1392H14.1173H14.0955H14.0736H14.0518H14.0301H14.0083H13.9866H13.9649H13.9432H13.9215H13.8999H13.8783H13.8567H13.8352H13.8136H13.7921H13.7706H13.7492H13.7277H13.7063H13.6849H13.6635H13.6422H13.6208H13.5995H13.5782H13.5569H13.5357H13.5145H13.4932H13.4721H13.4509H13.4297H13.4086H13.3875H13.3664H13.3453H13.3242H13.3032H13.2821H13.2611H13.2401H13.2191H13.1982H13.1772H13.1563H13.1354H13.1145H13.0936H13.0727H13.0518H13.031H13.0101H12.9893H12.9685H12.9477H12.9269H12.9062H12.8854H12.8646H12.8439H12.8232H12.8025H12.7817H12.7611H12.7404H12.7197H12.699H12.6784H12.6577H12.6371H12.6164H12.5958H12.5752H12.5546H12.534H12.5134H12.4928H12.4722H12.4516H12.4311H12.4105H12.39H12.3694H12.3489H12.3283H12.3078H12.2872H12.2667H12.2462H12.2256H12.2051H12.1846H12.1641H12.1436H12.1231H12.1025H12.082H12.0615H12.041H12.0205H12H11.9795H11.959H11.9385H11.918H11.8975H11.8769H11.8564H11.8359H11.8154H11.7949H11.7744H11.7538H11.7333H11.7128H11.6922H11.6717H11.6511H11.6306H11.61H11.5895H11.5689H11.5484H11.5278H11.5072H11.4866H11.466H11.4454H11.4248H11.4042H11.3836H11.3629H11.3423H11.3216H11.301H11.2803H11.2596H11.2389H11.2183H11.1975H11.1768H11.1561H11.1354H11.1146H11.0938H11.0731H11.0523H11.0315H11.0107H10.9899H10.969H10.9482H10.9273H10.9064H10.8855H10.8646H10.8437H10.8228H10.8018H10.7809H10.7599H10.7389H10.7179H10.6968H10.6758H10.6547H10.6336H10.6125H10.5914H10.5703H10.5491H10.5279H10.5068H10.4855H10.4643H10.4431H10.4218H10.4005H10.3792H10.3578H10.3365H10.3151H10.2937H10.2723H10.2508H10.2294H10.2079H10.1864H10.1648H10.1433H10.1217H10.1001H10.0785H10.0568H10.0351H10.0134H9.9917H9.96994H9.94816H9.92635H9.90452H9.88265H9.86076H9.83885H9.8169H9.79493H9.77293H9.7509H9.72884H9.70676H9.68464H9.6625H9.64032H9.61812H9.59588H9.57361H9.55132H9.52899H9.50663H9.48424H9.46182H9.43936H9.41687H9.39435H9.3718H9.34921H9.32659H9.30394H9.28125H9.25853H9.23577H9.21298H9.19015H9.16729H9.14439H9.12146H9.09849H9.07548H9.05244H9.02936H9.00624H8.98309H8.95989H8.93666H8.91339H8.89008H8.86674H8.84335H8.81992H8.79646H8.77295H8.74941H8.72582H8.7022H8.67853H8.65482H8.63107H8.60728H8.58344H8.55956H8.53565H8.51168H8.48768H8.46363H8.43953H8.4154H8.39122H8.36699H8.34272H8.31841H8.29404H8.26964H8.24519H8.22069H8.19614H8.17155H8.14691H8.12223H8.09749H8.07271H8.04788H8.02301H7.99808H7.97311H7.94808H7.92301H7.89789H7.87271H7.84749H7.82222H7.7969H7.77152H7.74609H7.72062H7.69509H7.66951H7.64387H7.61819H7.59245H7.56666H7.54081H7.51491H7.48896H7.46295H7.43689H7.41077H7.3846H7.35838H7.33209H7.30576H7.27936H7.25291H7.2264H7.19984H7.17322H7.14654H7.11981H7.09301H7.06616H7.03925H7.01228H6.98525H6.95816H6.93102H6.90381H6.87654H6.84921H6.82183H6.79438H6.76687H6.7393H6.71166H6.68397H6.65621H6.62839H6.60051H6.57256H6.54455H6.51648H6.48835H6.46014H6.43188H6.40355H6.37516H6.3467H6.31817H6.28958H6.26092H6.2322H6.20341H6.17456H6.14563H6.11664H6.08758H6.05846H6.02926H6C4.83705 21 4.27631 20.6701 4.00793 20.2957C3.72623 19.9028 3.65838 19.3146 3.80311 18.5786C3.9456 17.8539 4.27914 17.0715 4.6751 16.3863C5.07403 15.696 5.5095 15.1504 5.8254 14.8796Z"/>
<circle cx="12" cy="7" r="3.5"/>
</svg>
